<?xml version="1.0" encoding="utf-8"?>
<!-- Generator: Adobe Illustrator 16.0.0, SVG Export Plug-In . SVG Version: 6.00 Build 0)  -->
<!DOCTYPE svg PUBLIC "-//W3C//DTD SVG 1.1//EN" "http://www.w3.org/Graphics/SVG/1.1/DTD/svg11.dtd">
<svg version="1.1" id="Layer_1" xmlns="http://www.w3.org/2000/svg" xmlns:xlink="http://www.w3.org/1999/xlink" x="0px" y="0px"
	 width="595.279px" height="651.969px" viewBox="0 31.461 595.279 651.969" enable-background="new 0 31.461 595.279 651.969"
	 xml:space="preserve">
<path fill="#FFFFFF" d="M256.772,66.905l-1.757,16.273c-11.559-1.109-18.863,11.65-18.863,11.65l-8.969-0.092l0.832-27.924h28.757
	V66.905z"/>
<path fill="#FFFFFF" d="M189.458,47.118c0,0.832,0.277,1.664,0.924,2.312c1.295,1.202,3.236,1.202,4.438-0.093l1.664-1.756
	c0.647-0.647,1.479-1.017,2.404-0.925s1.757,0.462,2.312,1.202l0.093,0.092c0.462,0.555,0.647,1.202,0.647,1.942v22.561
	c0,8.691,7.119,15.811,15.811,15.811h0.093c1.757,0,3.144-1.387,3.144-3.144s-1.387-3.144-3.144-3.144h-0.093
	c-5.27,0-9.523-4.253-9.523-9.523V49.799c0-2.126-0.739-4.161-2.034-5.825l-0.093-0.092c-1.664-2.126-4.253-3.421-6.935-3.606
	c-2.773-0.185-5.362,0.924-7.305,2.866l-1.479,1.757C189.827,45.546,189.458,46.286,189.458,47.118z"/>
<path fill="#9F8759" d="M213.036,94.922h22.931c0-6.935,6.473-12.575,14.424-12.575c7.952,0,14.425,5.64,14.425,12.575h22.931
	c0-19.603-16.735-35.599-37.355-35.599C229.772,59.416,213.036,75.319,213.036,94.922z"/>
<g>
	<circle fill="#E5E5E5" cx="283.585" cy="207.172" r="28.386"/>
	<path fill="#DEE2E2" d="M265.186,207.172c0-10.171,8.229-18.4,18.399-18.4c10.172,0,18.4,8.229,18.4,18.4s-8.229,18.4-18.4,18.4
		C273.414,225.665,265.186,217.343,265.186,207.172z M270.364,207.172c0,7.305,5.918,13.222,13.222,13.222
		c7.305,0,13.223-5.917,13.223-13.222s-5.918-13.222-13.223-13.222C276.281,193.95,270.364,199.868,270.364,207.172z"/>
</g>
<polygon fill="#F6B497" points="330.834,580.263 354.042,571.201 350.899,545.959 326.859,548.918 "/>
<polygon fill="#F6B497" points="200.646,594.965 224.594,601.992 237.447,580.078 216.55,567.78 "/>
<path fill="#D7BB92" d="M268.144,255.253v55.293c0,24.41,19.88,44.29,44.29,44.29h41.794v26.629h-41.701
	c-39.112,0-70.919-31.807-70.919-70.919c0-12.113-2.867-60.102-2.867-60.102L268.144,255.253z"/>
<path fill="#D7BB92" d="M356.262,353.45h8.137c15.626,0,28.201,12.667,28.201,28.201h-64.539
	C328.061,366.024,340.635,353.45,356.262,353.45z"/>
<g>
	<path fill="#D3D3D3" d="M292.647,633.614L292.647,633.614c1.85,0,3.236-1.387,3.329-3.144l4.253-206.102l-6.103-0.093L292,529.223
		c-0.093,6.288-9.339,6.843-10.171,0.555l-12.113-90.521l-6.01,0.832l25.704,190.753
		C289.596,632.412,290.983,633.614,292.647,633.614z"/>
	<path fill="#D3D3D3" d="M172.445,631.025l34.304-190.845l-6.01-1.109l-15.904,89.228c-1.201,6.472-10.817,5.547-10.633-1.018
		l2.127-102.912l-6.103-0.092l-4.254,206.101c0,1.85,1.387,3.329,3.236,3.329h0.093
		C170.781,633.614,172.167,632.505,172.445,631.025z"/>
	<g>
		<path fill="#F04928" d="M224.871,271.435v53.629c0,50.67,41.054,91.816,91.816,91.816h0.924
			c-16.828,30.79-49.652,51.595-87.285,51.317c-54.184-0.37-97.733-44.29-97.733-98.474
			C132.593,317.389,173.369,274.578,224.871,271.435z"/>
	</g>
</g>
<path fill="#48505E" d="M322.975,374.069l0.277,0.277c3.236,3.884,5.271,8.599,6.103,13.592l26.63,166.712l-30.791,4.9
	l-24.872-156.264L322.975,374.069z"/>
<g>
	<path fill="#856D4B" d="M49.098,412.719h24.503l48.913,209.893c1.295,5.64-2.959,11.096-8.784,11.096h-0.185
		c-4.161,0-7.859-2.866-8.784-6.936L70.55,479.848c-2.22-9.709-16.089-9.709-18.309,0L18.031,626.771
		c-0.925,4.069-4.623,6.936-8.784,6.936H9.062c-5.825,0-10.079-5.456-8.784-11.096L49.098,412.719z"/>
	<polygon fill="#674A2B" points="51.872,400.884 70.919,400.884 73.694,412.719 49.098,412.719 	"/>
</g>
<path fill="#856D4B" d="M19.233,400.884h98.751v-19.418H19.233c-5.271,0-9.616,4.347-9.616,9.616v0.186
	C9.616,396.63,13.869,400.884,19.233,400.884z"/>
<g>
	<path fill="#856D4B" d="M583.907,633.614h-0.186c-4.161,0-7.859-2.866-8.784-6.935l-34.211-146.925
		c-2.22-9.709-16.089-9.709-18.308,0L488.207,626.68c-0.925,4.068-4.623,6.935-8.784,6.935h-0.185
		c-5.825,0-10.079-5.455-8.784-11.096l48.913-209.893h24.503l48.913,209.893C593.986,628.252,589.733,633.614,583.907,633.614z"/>
	<polygon fill="#674A2B" points="541.004,400.884 543.778,412.719 519.275,412.719 522.049,400.884 	"/>
</g>
<g>
	<path fill="#D3D3D3" d="M310.122,325.711L310.122,325.711c-0.647-1.295-0.832-2.682-0.555-4.068l33.38-163.383
		c0.555-2.589,2.589-4.438,4.992-4.9l0,0l0,0c0.37-0.093,0.647-0.093,1.018-0.093c4.438-0.277,12.76,0,12.76,0l-7.212,11.465
		l-31.438,155.154l0,0l4.808,14.794c0,0-13.407-0.647-17.753-8.599C310.308,325.896,310.215,325.803,310.122,325.711
		L310.122,325.711z"/>
	<path fill="#E5E5E5" d="M328.061,334.587h204.807c5.085,0,9.523-3.605,10.541-8.599l32.547-160.517
		c1.294-6.38-3.606-12.297-10.079-12.297H362.087c-2.959,0-5.548,2.126-6.195,4.993l-34.119,168.746
		C320.941,330.889,323.992,334.587,328.061,334.587z"/>
	<path fill="#F9F9FA" d="M439.942,381.651h36.522c4.993,0,8.784-4.438,7.952-9.339l-15.349-95.33h-46.047l5.271,104.669H439.942z"/>
	<path fill="#D3D3D3" d="M395.836,366.21h17.66c6.843,0,12.113-6.103,11.096-12.945l-10.91-65.464
		c-0.925-5.641,3.514-10.818,9.246-10.818h0.093l14.517,89.228l0.739,4.808c0.833,5.548-3.421,10.634-9.153,10.634h-0.093h-46.602
		v-2.034C382.429,372.22,388.439,366.21,395.836,366.21z"/>
</g>
<g>
	<g>
		<g>
			<path fill="#D3D3D3" d="M447.061,223.076c-11.465,0-20.804,9.339-20.804,20.804s9.339,20.804,20.804,20.804
				c11.466,0,20.805-9.339,20.805-20.804C456.307,243.88,447.061,234.542,447.061,223.076z"/>
		</g>
	</g>
</g>
<g opacity="0.5">
	<path fill="#FFFFFF" d="M245.583,307.496h-3.421h-6.75c-0.925,0-1.664,0.739-1.664,1.664s0.739,1.665,1.664,1.665h2.866
		c1.85,0,3.421,1.479,3.421,3.421c0,1.85-1.479,3.421-3.421,3.421h-32.455c-1.849,0-3.421-1.479-3.421-3.421
		c0-1.849,1.479-3.421,3.421-3.421h4.346h19.695c0.925,0,1.664-0.74,1.664-1.665s-0.739-1.664-1.664-1.664h-11.559
		c-1.849,0-3.421-1.479-3.421-3.421s1.479-3.421,3.421-3.421h3.514c0.925,0,1.665-0.74,1.665-1.665s-0.74-1.665-1.665-1.665h-19.694
		h-9.986c-1.849,0-3.421-1.479-3.421-3.421c0-1.85,1.479-3.421,3.421-3.421h44.013c1.85,0,3.422,1.479,3.422,3.421
		c0,1.849-1.479,3.421-3.422,3.421l0,0h-2.034h-6.75l0,0c-0.924,0-1.664,0.74-1.664,1.665s0.74,1.665,1.664,1.665h6.75l0,0h11.466
		c1.85,0,3.421,1.479,3.421,3.421S247.525,307.496,245.583,307.496z"/>
	<path fill="#FFFFFF" d="M235.135,325.434h7.212c1.85,0,3.421,1.479,3.421,3.421c0,1.85-1.479,3.421-3.421,3.421h-7.212
		c-1.85,0-3.421-1.479-3.421-3.421C231.806,327.005,233.285,325.434,235.135,325.434z"/>
</g>
<path fill="#2A0D59" d="M190.105,248.504h39.667c11.928,0,21.637,9.708,21.637,21.636v20.342l9.986,14.702
	c8.506,12.391,2.589,29.496-11.743,34.026l-0.277,0.093v92.741l-80.813-18.678l-8.414-67.591
	c-4.346-35.044,6.38-70.272,29.681-96.81L190.105,248.504z"/>
<path fill="#D7BB92" d="M188.071,252.942h1.018l-0.555,13.777c-0.277,6.288-4.623,11.558-10.634,13.223h-0.093
	c-3.144,0.924-6.194,2.219-9.061,3.976c-11.281,6.842-19.325,19.51-19.325,33.38c0,21.267,17.291,38.649,38.649,38.649h38.373
	v25.705h-37.541c-35.413,0-64.816-28.294-65.187-63.708C123.346,282.16,152.38,252.942,188.071,252.942z"/>
<polygon fill="#48505E" points="322.975,374.069 309.475,419.653 168.283,411.147 "/>
<g>
	<g>
		<g>
			<path fill="#48505E" d="M227.09,366.024h131.668c8.6,0,15.534,6.936,15.534,15.534v0.185H242.624v-0.185
				C242.624,373.052,235.69,366.024,227.09,366.024z"/>
		</g>
	</g>
</g>
<rect x="480.81" y="590.896" fill="#856D4B" width="99.769" height="15.533"/>
<rect x="12.575" y="590.896" fill="#856D4B" width="99.768" height="15.533"/>
<path fill="#9F8759" d="M115.117,400.884h470.547c5.27,0,9.616-4.346,9.616-9.616v-0.186c0-5.271-4.347-9.616-9.616-9.616H115.117
	c-5.271,0-9.616,4.347-9.616,9.616v0.186C105.501,396.63,109.847,400.884,115.117,400.884z"/>
<path fill="#313E3F" d="M317.612,439.533v0.37c0,5.085-1.387,9.986-3.883,14.332L236.06,588.77l-29.219-13.685l74.803-127.507
	h-77.022c-19.972,0-36.152-16.182-36.152-36.153v-0.37h120.85C304.852,411.147,317.612,423.907,317.612,439.533z"/>
<path fill="#F6B497" d="M167.913,284.379l16.459-14.332v0.185c1.387,9.894-6.287,18.771-16.273,18.771h-1.942
	C166.99,286.599,167.913,284.379,167.913,284.379z"/>
<g>
	<g>
		<g>
			<path fill="#9C1A82" d="M326.489,569.907c17.846,1.202,8.877,0.555,15.441,1.017c11.558,0.74,21.821-10.541,22.191-17.291
				c0-0.277,0-0.646,0-0.924l18.03,1.201c17.938,1.202,31.53,16.644,30.421,34.582v0.37l-90.707-5.918
				C322.327,576.102,321.495,573.79,326.489,569.907z"/>
		</g>
	</g>
</g>
<g>
	<g>
		<g>
			<path fill="#9C1A82" d="M201.109,590.526c16.828,6.103,8.321,3.051,14.517,5.271c10.91,3.976,23.855-3.977,26.167-10.356
				c0.093-0.277,0.185-0.646,0.277-0.925l17.014,6.195c16.92,6.195,25.612,24.873,19.417,41.794l-0.093,0.277l-85.437-31.067
				C195.375,595.242,195.283,592.931,201.109,590.526z"/>
		</g>
	</g>
</g>
<path fill="#48505E" d="M209.06,406.801h109.939l17.938,68.424h-25.335l-8.414-47.435c-1.109-6.38-6.935-10.448-13.13-9.801
	c-0.832,0.093-1.757,0.277-2.589,0.555l-58.252,23.948c-8.137,3.329-16.921,5.086-25.797,5.086h-0.093l0,0
	c-19.417-0.647-35.044-16.552-35.044-36.153v-0.37L209.06,406.801z"/>
<path fill="#DEE2E2" d="M216.735,102.319c7.767-4.901,17.014-7.767,26.907-7.767c12.205,0,23.301,4.346,32.084,11.558h-8.137
	h-14.146c-3.144-0.74-6.38-1.202-9.709-1.202c-1.294,0-2.589,0.092-3.883,0.185c-1.942,0.185-3.884,0.555-5.825,1.017l-0.647,0.185
	c-2.497,0.647-7.768,2.589-10.264,4.438l-6.935-1.757C216.087,106.665,216.272,104.445,216.735,102.319z"/>
<path fill="#DEE2E2" d="M254.645,95.754c0,0,11.28,1.664,13.037,8.691h1.572v1.202l-15.35,0.277L254.645,95.754z"/>
<g>
	<g>
		<path fill="#BED231" d="M531.573,338.563"/>
		<g>
			<g>
				<g>
					<path fill="#BED231" d="M530.37,311.564h-12.482c-5.455,0-9.801-4.438-9.801-9.801v-0.093h12.482
						c5.455,0,9.801,4.438,9.801,9.801V311.564z"/>
					<path fill="#BED231" d="M532.775,311.564h12.482c5.456,0,9.802-4.438,9.802-9.801v-0.093h-12.483
						c-5.455,0-9.801,4.438-9.801,9.801V311.564z"/>
				</g>
			</g>
			<g>
				<path fill="#BED231" d="M530.37,294.366h-12.482c-5.455,0-9.801-4.438-9.801-9.801v-0.185h12.482
					c5.455,0,9.801,4.438,9.801,9.801V294.366z"/>
				<path fill="#BED231" d="M532.775,294.366h12.482c5.456,0,9.802-4.438,9.802-9.801v-0.185h-12.483
					c-5.455,0-9.801,4.438-9.801,9.801V294.366z"/>
			</g>
			<g>
				<g>
					<path fill="#BED231" d="M530.833,278.924h-7.582c-3.329,0-6.011-2.682-6.011-6.01v-0.092h7.582
						C528.152,272.822,530.833,275.503,530.833,278.924L530.833,278.924z"/>
					<path fill="#BED231" d="M532.313,278.924h7.582c3.328,0,6.01-2.682,6.01-6.01v-0.092h-7.582
						C534.993,272.822,532.313,275.503,532.313,278.924L532.313,278.924z"/>
				</g>
			</g>
			<rect x="530.556" y="277.26" fill="#BED231" width="1.941" height="63.893"/>
		</g>
		<g>
			<g>
				<path fill="#934921" d="M508.826,338.193c0,8.137,6.565,14.794,14.794,14.794h15.997c8.137,0,14.794-6.564,14.794-14.794l0,0
					c0-8.137-6.565-14.794-14.794-14.794H523.62C515.392,323.491,508.826,330.057,508.826,338.193L508.826,338.193z"/>
			</g>
			<g>
				<path fill="#D3D3D3" d="M554.873,326.45v40.776c0,7.859-6.38,14.332-14.332,14.332h-18.122c-7.859,0-14.332-6.38-14.332-14.332
					V326.45H554.873z"/>
			</g>
		</g>
	</g>
</g>
<path fill="#422210" d="M241.515,83.179c15.626,1.017,29.958,5.918,41.979,13.777c22.469,14.609,36.893,39.112,36.153,66.204
	c-2.867,34.951-8.6,47.434-17.846,58.53c-4.809,5.825-8.969,11.928-12.575,18.4c-7.859,14.24-12.667,29.866-13.685,46.047
	l-0.185,2.867h-0.555c-21.544-1.387-44.567-10.264-51.78-29.034c-45.029-3.699-73.416-42.348-70.734-84.604l1.295-19.88
	C156.356,112.582,195.653,80.22,241.515,83.179z"/>
<polygon fill="#D7BB92" points="214.33,131.63 303.465,137.27 302.91,145.684 298.657,212.166 248.079,218.638 209.707,204.769 "/>
<ellipse transform="matrix(-0.998 -0.0636 0.0636 -0.998 558.9322 415.721)" fill="#1A8B49" cx="286.079" cy="198.97" rx="7.674" ry="8.23"/>
<ellipse transform="matrix(-0.998 -0.0635 0.0635 -0.998 477.3156 407.9192)" fill="#1A8B49" cx="245.143" cy="196.371" rx="7.675" ry="8.229"/>
<path opacity="0.5" fill="#56463A" enable-background="new    " d="M285.619,180.081l6.565,1.202
	c1.757,0.277,2.866,2.034,2.496,3.883l-9.801-1.849c-2.034-0.37-1.664-3.421,0.37-3.329
	C285.435,180.081,285.528,180.081,285.619,180.081z"/>
<path opacity="0.5" fill="#885C4F" enable-background="new    " d="M250.761,173.331l-6.657-0.37
	c-1.757-0.092-3.236,1.294-3.329,3.144l9.894,0.462c2.034,0.093,2.404-2.958,0.463-3.236
	C250.946,173.331,250.854,173.331,250.761,173.331z"/>
<path fill="#D7BB92" d="M207.766,248.411l2.403-51.872l27.092,1.757l-0.924,15.256l62.32-1.756v0.462
	c-1.665,25.52-24.41,41.054-51.133,39.297l-28.108-1.756c-3.791-0.278-7.675-0.647-11.466-1.294L207.766,248.411z"/>
<path fill="#412210" d="M219.785,91.963l93.573,46.602c0,0-24.317,46.417-134.904,7.952L219.785,91.963z"/>
<g>
	<path fill="#C6A57C" d="M273.969,195.799l8.229,26.537c-1.017-0.092-17.476-1.109-17.476-1.109l1.664-25.89L273.969,195.799z"/>
	<polygon fill="#C6A57C" points="273.969,195.799 284.696,222.521 279.425,222.244 271.843,195.707 	"/>
</g>
<path fill="#422210" d="M208.691,132.554l1.571,61.396c0,0,65.741-10.079,97.271-45.399L208.691,132.554z"/>
<path fill="#D7BB92" d="M223.115,259.969c-0.925,4.623-5.455,7.674-10.171,6.75l0,0c-4.623-0.924-7.675-5.455-6.75-10.171
	l5.455-26.722c0.925-4.624,5.456-7.675,10.171-6.75l0,0c4.624,0.925,7.675,5.456,6.75,10.171L223.115,259.969z"/>
<path fill="#FFFFFF" d="M244.474,225.942c-0.74,8.415,5.548,15.812,13.869,16.458c8.414,0.74,15.812-5.547,16.459-13.869
	L244.474,225.942z"/>
<path fill="#412210" d="M311.417,149.383l-15.903,1.017c0,0,7.396,10.171,4.9,34.766L311.417,149.383z"/>
<path fill="#422210" d="M223.022,295.013c-12.205-12.205-16.735-28.479-15.349-44.845l1.295-29.681l-56.311-50.763l-3.698,56.68
	c-2.034,31.253,17.845,62.228,48.728,67.313C204.991,295.013,222.744,294.92,223.022,295.013z"/>
<path fill="#9F8759" d="M267.589,84.473h6.195c9.986,0,18.123,8.137,18.123,18.123v3.791c0,2.219-1.757,3.976-3.976,3.976
	c-2.22,0-3.977-1.757-3.977-3.976v-3.791c0-5.548-4.53-10.079-10.078-10.079h-6.195c-2.219,0-3.976-1.757-3.976-3.976
	C263.521,86.323,265.37,84.473,267.589,84.473z"/>
<path fill="none" stroke="#DEE2E2" stroke-width="20" stroke-miterlimit="10" d="M241.052,239.812"/>
<circle fill="#9F8759" cx="281.182" cy="78.094" r="17.845"/>
<polygon fill="#9F8759" points="273.23,70.974 295.698,70.974 295.698,53.775 "/>
<polygon fill="#9F8759" points="287.746,70.974 265.278,70.974 265.278,53.775 "/>
<path fill="#F4F4F4" d="M178.177,207.172h11.836v-59.546c0-18.4,7.489-35.783,20.526-47.804
	c12.021-11.096,27.277-16.458,43.088-15.164l7.859,0.647l0.925-11.835l-7.859-0.647c-19.14-1.572-37.633,4.901-52.057,18.308
	c-15.441,14.239-24.318,34.858-24.318,56.587V207.172L178.177,207.172z"/>
<g>
	<g>
		<path fill="#E5E5E5" d="M52.52,361.401c0,8.784,7.119,15.812,15.811,15.812h9.894c3.422,2.682,7.768,4.346,12.482,4.346
			c11.096,0,20.157-9.062,20.157-20.157v-18.03H70.642v2.127H68.33C59.639,345.591,52.52,352.71,52.52,361.401z M58.345,361.401
			c0-5.548,4.53-10.078,10.078-10.078h2.312v10.078c0,3.606,1.017,7.027,2.682,9.986h-4.9
			C62.875,371.48,58.345,366.949,58.345,361.401z"/>
		<path fill="#6F8B3A" d="M96.624,351.416c1.202-1.202,2.682-2.034,4.346-2.22v-7.489c0-0.74,0.647-1.387,1.387-1.387
			c0.74,0,1.388,0.646,1.388,1.387v7.489c1.571,0.277,3.144,1.018,4.346,2.22l0.092,0.092v16.736H96.717L96.624,351.416
			L96.624,351.416z"/>
	</g>
	<g>
		<g>
			<path fill="#C5E8EF" d="M93.203,314.152h-3.421h-6.75c-0.925,0-1.665,0.74-1.665,1.665s0.74,1.664,1.665,1.664h2.866
				c1.85,0,3.421,1.479,3.421,3.421c0,1.942-1.479,3.422-3.421,3.422H53.444c-1.849,0-3.421-1.479-3.421-3.422
				c0-1.941,1.479-3.421,3.421-3.421h4.346h19.695c0.925,0,1.664-0.739,1.664-1.664s-0.739-1.665-1.664-1.665h-11.65
				c-1.85,0-3.421-1.479-3.421-3.421c0-1.849,1.479-3.421,3.421-3.421h3.514c0.925,0,1.664-0.74,1.664-1.665
				c0-0.924-0.739-1.664-1.664-1.664H49.745h-9.986c-1.849,0-3.421-1.479-3.421-3.421c0-1.849,1.479-3.421,3.421-3.421h44.013
				c1.85,0,3.421,1.479,3.421,3.421c0,1.849-1.479,3.421-3.421,3.421l0,0h-2.034h-6.75l0,0c-0.924,0-1.664,0.74-1.664,1.664
				c0,0.925,0.74,1.665,1.664,1.665h6.75l0,0h11.466c1.85,0,3.421,1.479,3.421,3.421C96.624,312.673,95.053,314.152,93.203,314.152z
				"/>
			<path fill="#C5E8EF" d="M82.755,332.184h7.212c1.85,0,3.421,1.479,3.421,3.421c0,1.849-1.479,3.421-3.421,3.421h-7.212
				c-1.85,0-3.422-1.479-3.422-3.421C79.333,333.662,80.906,332.184,82.755,332.184z"/>
		</g>
	</g>
</g>
<path fill="#9F8759" d="M238.371,67.368c0.462-0.37,0.739-0.647,1.202-1.017h7.119h13.962c0.463,0.37,0.74,0.647,1.202,1.017
	l0.832,5.548c0.463,0.37,0.74,0.647,1.202,1.017c1.202,0,2.496,0.462,3.791,1.849c0.093,0.277,0.185,0.555,0.277,0.832v24.873
	c0,2.034-1.479,3.883-3.514,4.161c-2.404,0.277-4.53-1.572-4.53-3.976V86.415c-0.093-0.185-0.093-0.462-0.186-0.647
	c-3.883-7.859-11.928-12.297-22.099-12.297c0,0-0.093-0.647,0-1.387L238.371,67.368z"/>
<g>
	<g>
		<path fill="#9F8759" d="M295.698,80.96c0,0.37,0.37,0.647,0.739,0.555l6.38-0.74c0.37,0,0.647-0.37,0.556-0.74l0,0
			c0-0.37-0.37-0.647-0.74-0.555l-6.38,0.74C295.883,80.22,295.698,80.59,295.698,80.96L295.698,80.96z"/>
		<path fill="#9F8759" d="M303.465,85.953c0,0.37-0.369,0.647-0.739,0.555l-6.38-0.74c-0.37,0-0.647-0.37-0.555-0.739l0,0
			c0-0.37,0.369-0.647,0.739-0.555l6.38,0.74C303.188,85.306,303.465,85.583,303.465,85.953L303.465,85.953z"/>
		<path fill="#9F8759" d="M295.698,82.994c0,0.37,0.277,0.647,0.647,0.647h6.472c0.37,0,0.647-0.277,0.647-0.647l0,0
			c0-0.37-0.277-0.647-0.647-0.647h-6.472C295.976,82.347,295.698,82.624,295.698,82.994L295.698,82.994z"/>
	</g>
	<path fill="#674A2B" d="M290.058,83.271c-0.185,0-0.369,0.185-0.369,0.37c0,0.647-0.556,1.202-1.202,1.202
		c-0.647,0-1.202-0.555-1.202-1.202c0-0.185-0.186-0.37-0.37-0.37l0,0l0,0c-0.185,0-0.37,0.185-0.37,0.37
		c0,0.647-0.555,1.202-1.201,1.202c-0.647,0-1.202-0.555-1.202-1.202c0-0.185-0.186-0.37-0.37-0.37s-0.37,0.185-0.37,0.37
		c0,1.017,0.832,1.942,1.942,1.942c0.646,0,1.201-0.277,1.571-0.832c0.37,0.462,0.925,0.832,1.572,0.832
		c1.017,0,1.941-0.832,1.941-1.942C290.428,83.456,290.243,83.271,290.058,83.271z"/>
	<g>
		<path fill="#856D4B" d="M273.045,80.96c0,0.37-0.37,0.647-0.74,0.555l-6.38-0.74c-0.37,0-0.647-0.37-0.555-0.74l0,0
			c0-0.37,0.37-0.647,0.739-0.555l6.381,0.74C272.768,80.22,273.045,80.59,273.045,80.96L273.045,80.96z"/>
		<path fill="#856D4B" d="M265.278,85.953c0,0.37,0.37,0.647,0.74,0.555l6.38-0.74c0.37,0,0.647-0.37,0.555-0.739l0,0
			c0-0.37-0.37-0.647-0.74-0.555l-6.38,0.74C265.555,85.306,265.278,85.583,265.278,85.953L265.278,85.953z"/>
		<path fill="#856D4B" d="M273.045,82.994c0,0.37-0.277,0.647-0.647,0.647h-6.473c-0.37,0-0.647-0.277-0.647-0.647l0,0
			c0-0.37,0.277-0.647,0.647-0.647h6.473C272.768,82.347,273.045,82.624,273.045,82.994L273.045,82.994z"/>
	</g>
	<circle fill="#674A2B" cx="277.391" cy="81.884" r="2.126"/>
	<circle fill="#674A2B" cx="294.958" cy="81.884" r="2.126"/>
</g>
<circle fill="#F4F4F4" cx="184.095" cy="207.172" r="28.386"/>
<path fill="#F4F4F4" d="M170.965,198.481h2.866v-40.869c0-5.917,4.809-10.726,10.726-10.726c5.918,0,10.727,4.808,10.727,10.726
	v40.869h2.866v-40.869c0-7.489-6.103-13.592-13.593-13.592c-7.489,0-13.592,6.103-13.592,13.592V198.481L170.965,198.481z"/>
<path fill="#3B5B9B" d="M165.695,207.172c0-10.171,8.229-18.4,18.4-18.4s18.4,8.229,18.4,18.4s-8.229,18.4-18.4,18.4
	C173.924,225.665,165.695,217.343,165.695,207.172z M170.872,207.172c0,7.305,5.918,13.222,13.223,13.222
	s13.223-5.917,13.223-13.222s-5.918-13.222-13.223-13.222S170.872,199.868,170.872,207.172z"/>
<path fill="#48505E" d="M214.7,320.995L214.7,320.995c-2.497,1.664-3.052,4.9-1.479,7.212l32.824,48.544l8.691-5.825l-32.824-48.544
	C220.248,319.978,217.012,319.423,214.7,320.995z"/>
<path fill="#D7BB92" d="M226.073,352.248h8.414c16.181,0,29.403,13.13,29.403,29.403H196.67
	C196.762,365.378,209.892,352.248,226.073,352.248z"/>
</svg>
